<svg xmlns="http://www.w3.org/2000/svg" viewBox="0 0 2200 1200" role="img" aria-label="Premium lifestyle hero background">
  <defs>
    <linearGradient id="bg" x1="0" y1="0" x2="1" y2="1">
      <stop offset="0%" stop-color="#2e251e"/>
      <stop offset="45%" stop-color="#58452f"/>
      <stop offset="100%" stop-color="#8f6f4a"/>
    </linearGradient>
    <radialGradient id="sun" cx="58%" cy="28%" r="54%">
      <stop offset="0%" stop-color="#f8dca7" stop-opacity="0.75"/>
      <stop offset="100%" stop-color="#f8dca7" stop-opacity="0"/>
    </radialGradient>
    <linearGradient id="forest" x1="0" y1="0" x2="0" y2="1">
      <stop offset="0%" stop-color="#3d3026"/>
      <stop offset="100%" stop-color="#16100d"/>
    </linearGradient>
  </defs>
  <rect width="2200" height="1200" fill="url(#bg)"/>
  <rect width="2200" height="1200" fill="url(#sun)"/>
  <g opacity="0.32">
    <rect x="110" y="-120" width="90" height="980" fill="url(#forest)"/>
    <rect x="320" y="-120" width="75" height="980" fill="url(#forest)"/>
    <rect x="540" y="-120" width="95" height="980" fill="url(#forest)"/>
    <rect x="760" y="-120" width="76" height="980" fill="url(#forest)"/>
    <rect x="980" y="-120" width="88" height="980" fill="url(#forest)"/>
    <rect x="1230" y="-120" width="72" height="980" fill="url(#forest)"/>
    <rect x="1460" y="-120" width="96" height="980" fill="url(#forest)"/>
    <rect x="1690" y="-120" width="74" height="980" fill="url(#forest)"/>
    <rect x="1920" y="-120" width="88" height="980" fill="url(#forest)"/>
  </g>
  <g opacity="0.15">
    <circle cx="260" cy="270" r="78" fill="#fff4d9"/>
    <circle cx="620" cy="180" r="66" fill="#fff4d9"/>
    <circle cx="880" cy="250" r="82" fill="#fff4d9"/>
    <circle cx="1180" cy="220" r="72" fill="#fff4d9"/>
    <circle cx="1530" cy="300" r="84" fill="#fff4d9"/>
    <circle cx="1840" cy="220" r="68" fill="#fff4d9"/>
  </g>
  <path d="M0 980 C380 860 760 860 1130 960 C1480 1050 1850 1040 2200 940 L2200 1200 L0 1200 Z" fill="#1a1411" opacity="0.62"/>
  <ellipse cx="1900" cy="760" rx="210" ry="340" fill="#2a1f18" opacity="0.46"/>
</svg>
