<svg xmlns="http://www.w3.org/2000/svg" viewBox="0 0 2200 1200" role="img" aria-label="Premium wellness lifestyle background">
  <defs>
    <linearGradient id="bg" x1="0" y1="0" x2="1" y2="1">
      <stop offset="0%" stop-color="#e9dfcf"/>
      <stop offset="42%" stop-color="#d8ddcf"/>
      <stop offset="100%" stop-color="#cfd8e2"/>
    </linearGradient>
    <radialGradient id="sun" cx="72%" cy="22%" r="56%">
      <stop offset="0%" stop-color="#fff3d8" stop-opacity="0.88"/>
      <stop offset="100%" stop-color="#fff3d8" stop-opacity="0"/>
    </radialGradient>
    <linearGradient id="hill" x1="0" y1="0" x2="0" y2="1">
      <stop offset="0%" stop-color="#7a8f7b"/>
      <stop offset="100%" stop-color="#58705a"/>
    </linearGradient>
  </defs>
  <rect width="2200" height="1200" fill="url(#bg)"/>
  <rect width="2200" height="1200" fill="url(#sun)"/>
  <path d="M0 760 C220 620 410 640 620 720 C870 820 1160 835 1450 710 C1670 615 1905 610 2200 750 L2200 1200 L0 1200 Z" fill="url(#hill)" opacity="0.46"/>
  <path d="M0 850 C280 740 510 760 760 835 C1080 930 1420 930 1760 835 C1910 790 2050 770 2200 805 L2200 1200 L0 1200 Z" fill="#425948" opacity="0.30"/>
  <g opacity="0.36">
    <ellipse cx="280" cy="770" rx="170" ry="380" fill="#2f4a37"/>
    <ellipse cx="2120" cy="760" rx="180" ry="390" fill="#314f3b"/>
  </g>
  <g opacity="0.16">
    <circle cx="1390" cy="280" r="240" fill="#ffffff"/>
    <circle cx="1730" cy="370" r="190" fill="#ffffff"/>
  </g>
</svg>
